<?xml version="1.0" encoding="UTF-8"?>
<svg width="40px" height="36px" viewBox="0 0 40 36" version="1.1" xmlns="http://www.w3.org/2000/svg" xmlns:xlink="http://www.w3.org/1999/xlink">
    <!-- Generator: Sketch 43.2 (39069) - http://www.bohemiancoding.com/sketch -->
    <title>search</title>
    <desc>Created with Sketch.</desc>
    <defs></defs>
    <g id="Page-1" stroke="none" stroke-width="1" fill="none" fill-rule="evenodd">
        <g id="search" fill-rule="nonzero" fill="#1FC8DD">
            <path d="M38.1,29.4 L34,26.4 C35.3,23.9 36,21.1 36,18.1 C36,8.1 27.9,0.1 18,0.1 C8.1,0.1 0,8.1 0,18 C0,28 8.1,36 18,36 C23.2,36 27.8,33.8 31.1,30.3 L35.1,33.3 C36.2,34.1 37.7,33.9 38.4,32.8 L38.5,32.7 C39.4,31.7 39.2,30.2 38.1,29.4 Z M18,30.8 C11,30.8 5.3,25.1 5.3,18.1 C5.3,11.1 11,5.3 18,5.3 C25,5.3 30.7,11 30.7,18 C30.7,25.1 25.1,30.8 18,30.8 Z" id="MAGNIFYING_GLASS_1_"></path>
        </g>
    </g>
</svg>